<mxfile host="app.diagrams.net" modified="2023-04-28T14:36:45.176Z" agent="Mozilla/5.0 (Windows NT 10.0; Win64; x64) AppleWebKit/537.36 (KHTML, like Gecko) Chrome/112.0.0.0 Safari/537.36" etag="rKP-jeDBDk0AkVIvZzVs" version="21.2.3" type="device">
  <diagram id="ql5Kk59QJ9DEcHVxNvi2" name="Page-1">
    <mxGraphModel dx="712" dy="746" grid="1" gridSize="10" guides="1" tooltips="1" connect="1" arrows="1" fold="1" page="1" pageScale="1" pageWidth="827" pageHeight="1169" math="0" shadow="0">
      <root>
        <mxCell id="0" />
        <mxCell id="1" parent="0" />
        <mxCell id="ZD2BOli1PRJFR32QjBVF-1" value="" style="ellipse;html=1;shape=startState;fillColor=#000000;strokeColor=#ff0000;" parent="1" vertex="1">
          <mxGeometry x="415" y="50" width="30" height="30" as="geometry" />
        </mxCell>
        <mxCell id="ZD2BOli1PRJFR32QjBVF-3" value="" style="ellipse;html=1;shape=endState;fillColor=#000000;strokeColor=#ff0000;" parent="1" vertex="1">
          <mxGeometry x="415" y="710" width="30" height="30" as="geometry" />
        </mxCell>
        <mxCell id="ZD2BOli1PRJFR32QjBVF-4" value="CONTROLLO DISPONIBILITÃ€ PRODOTTI IN VETRINA (AO2)" style="rounded=1;whiteSpace=wrap;html=1;" parent="1" vertex="1">
          <mxGeometry x="370" y="120" width="120" height="60" as="geometry" />
        </mxCell>
        <mxCell id="ZD2BOli1PRJFR32QjBVF-6" value="" style="html=1;points=[];perimeter=orthogonalPerimeter;fillColor=#000000;strokeColor=none;rotation=-90;fontStyle=1" parent="1" vertex="1">
          <mxGeometry x="427.5" y="-60" width="5" height="565" as="geometry" />
        </mxCell>
        <mxCell id="qonFJEKreM-nKnoJJgmL-3" value="" style="edgeStyle=orthogonalEdgeStyle;html=1;verticalAlign=bottom;endArrow=open;endSize=8;strokeColor=#ff0000;rounded=0;" parent="1" edge="1">
          <mxGeometry relative="1" as="geometry">
            <mxPoint x="429.66999999999996" y="120" as="targetPoint" />
            <mxPoint x="429.16999999999996" y="80" as="sourcePoint" />
          </mxGeometry>
        </mxCell>
        <mxCell id="qonFJEKreM-nKnoJJgmL-11" value="Addetto al&amp;nbsp; bar/Addetto al chiosco Drive-in" style="text;html=1;strokeColor=none;fillColor=none;align=center;verticalAlign=middle;whiteSpace=wrap;rounded=0;" parent="1" vertex="1">
          <mxGeometry x="157.5" y="60" width="165" height="30" as="geometry" />
        </mxCell>
        <mxCell id="qonFJEKreM-nKnoJJgmL-34" value="Vendita bar/chiosco" style="rounded=1;whiteSpace=wrap;html=1;" parent="1" vertex="1">
          <mxGeometry x="180" y="260" width="120" height="60" as="geometry" />
        </mxCell>
        <mxCell id="qonFJEKreM-nKnoJJgmL-36" value="" style="edgeStyle=orthogonalEdgeStyle;html=1;verticalAlign=bottom;endArrow=open;endSize=8;strokeColor=#ff0000;rounded=0;" parent="1" edge="1">
          <mxGeometry relative="1" as="geometry">
            <mxPoint x="429.66999999999996" y="220" as="targetPoint" />
            <mxPoint x="429.16999999999996" y="180" as="sourcePoint" />
          </mxGeometry>
        </mxCell>
        <mxCell id="qonFJEKreM-nKnoJJgmL-37" value="" style="edgeStyle=orthogonalEdgeStyle;html=1;verticalAlign=bottom;endArrow=open;endSize=8;strokeColor=#ff0000;rounded=0;" parent="1" edge="1">
          <mxGeometry relative="1" as="geometry">
            <mxPoint x="239.66999999999996" y="260" as="targetPoint" />
            <mxPoint x="239.16999999999996" y="220" as="sourcePoint" />
          </mxGeometry>
        </mxCell>
        <mxCell id="qonFJEKreM-nKnoJJgmL-38" value="Rilascio ricevuta (al cliente)" style="rounded=1;whiteSpace=wrap;html=1;" parent="1" vertex="1">
          <mxGeometry x="180" y="360" width="120" height="60" as="geometry" />
        </mxCell>
        <mxCell id="qonFJEKreM-nKnoJJgmL-39" value="" style="edgeStyle=orthogonalEdgeStyle;html=1;verticalAlign=bottom;endArrow=open;endSize=8;strokeColor=#ff0000;rounded=0;" parent="1" edge="1">
          <mxGeometry relative="1" as="geometry">
            <mxPoint x="239.66999999999996" y="360" as="targetPoint" />
            <mxPoint x="239.16999999999996" y="320" as="sourcePoint" />
          </mxGeometry>
        </mxCell>
        <mxCell id="qonFJEKreM-nKnoJJgmL-40" value="Vendita all&#39;interno delle sale" style="rounded=1;whiteSpace=wrap;html=1;" parent="1" vertex="1">
          <mxGeometry x="580" y="260" width="120" height="60" as="geometry" />
        </mxCell>
        <mxCell id="qonFJEKreM-nKnoJJgmL-41" value="" style="edgeStyle=orthogonalEdgeStyle;html=1;verticalAlign=bottom;endArrow=open;endSize=8;strokeColor=#ff0000;rounded=0;" parent="1" edge="1">
          <mxGeometry relative="1" as="geometry">
            <mxPoint x="639.67" y="260" as="targetPoint" />
            <mxPoint x="639.17" y="220" as="sourcePoint" />
          </mxGeometry>
        </mxCell>
        <mxCell id="qonFJEKreM-nKnoJJgmL-42" value="Rilascio ricevuta (al cliente)" style="rounded=1;whiteSpace=wrap;html=1;" parent="1" vertex="1">
          <mxGeometry x="580" y="360" width="120" height="60" as="geometry" />
        </mxCell>
        <mxCell id="qonFJEKreM-nKnoJJgmL-43" value="" style="edgeStyle=orthogonalEdgeStyle;html=1;verticalAlign=bottom;endArrow=open;endSize=8;strokeColor=#ff0000;rounded=0;" parent="1" edge="1">
          <mxGeometry relative="1" as="geometry">
            <mxPoint x="639.67" y="360" as="targetPoint" />
            <mxPoint x="639.17" y="320" as="sourcePoint" />
          </mxGeometry>
        </mxCell>
        <mxCell id="qonFJEKreM-nKnoJJgmL-44" value="Controllori dei biglietti" style="text;html=1;strokeColor=none;fillColor=none;align=center;verticalAlign=middle;whiteSpace=wrap;rounded=0;" parent="1" vertex="1">
          <mxGeometry x="557.5" y="60" width="165" height="30" as="geometry" />
        </mxCell>
        <mxCell id="qonFJEKreM-nKnoJJgmL-45" value="" style="html=1;points=[];perimeter=orthogonalPerimeter;fillColor=#000000;strokeColor=none;rotation=-90;" parent="1" vertex="1">
          <mxGeometry x="427.5" y="180" width="5" height="565" as="geometry" />
        </mxCell>
        <mxCell id="qonFJEKreM-nKnoJJgmL-46" value="" style="edgeStyle=orthogonalEdgeStyle;html=1;verticalAlign=bottom;endArrow=open;endSize=8;strokeColor=#ff0000;rounded=0;" parent="1" edge="1">
          <mxGeometry relative="1" as="geometry">
            <mxPoint x="239.66999999999996" y="460" as="targetPoint" />
            <mxPoint x="239.16999999999996" y="420" as="sourcePoint" />
          </mxGeometry>
        </mxCell>
        <mxCell id="qonFJEKreM-nKnoJJgmL-47" value="" style="edgeStyle=orthogonalEdgeStyle;html=1;verticalAlign=bottom;endArrow=open;endSize=8;strokeColor=#ff0000;rounded=0;" parent="1" edge="1">
          <mxGeometry relative="1" as="geometry">
            <mxPoint x="640" y="460" as="targetPoint" />
            <mxPoint x="639.5" y="420" as="sourcePoint" />
          </mxGeometry>
        </mxCell>
        <mxCell id="qonFJEKreM-nKnoJJgmL-48" value="" style="edgeStyle=orthogonalEdgeStyle;html=1;verticalAlign=bottom;endArrow=open;endSize=8;strokeColor=#ff0000;rounded=0;" parent="1" edge="1">
          <mxGeometry relative="1" as="geometry">
            <mxPoint x="427.99999999999994" y="505" as="targetPoint" />
            <mxPoint x="427.49999999999994" y="465" as="sourcePoint" />
          </mxGeometry>
        </mxCell>
        <mxCell id="qonFJEKreM-nKnoJJgmL-53" value="Registrazione prodotti venduti" style="rounded=1;whiteSpace=wrap;html=1;" parent="1" vertex="1">
          <mxGeometry x="370" y="505" width="120" height="60" as="geometry" />
        </mxCell>
        <mxCell id="qonFJEKreM-nKnoJJgmL-54" value="" style="edgeStyle=orthogonalEdgeStyle;html=1;verticalAlign=bottom;endArrow=open;endSize=8;strokeColor=#ff0000;rounded=0;" parent="1" edge="1">
          <mxGeometry relative="1" as="geometry">
            <mxPoint x="427.99999999999994" y="605" as="targetPoint" />
            <mxPoint x="427.49999999999994" y="565" as="sourcePoint" />
          </mxGeometry>
        </mxCell>
        <mxCell id="qonFJEKreM-nKnoJJgmL-55" value="Registrazione ricevute" style="rounded=1;whiteSpace=wrap;html=1;" parent="1" vertex="1">
          <mxGeometry x="370" y="605" width="120" height="60" as="geometry" />
        </mxCell>
        <mxCell id="qonFJEKreM-nKnoJJgmL-56" value="" style="edgeStyle=orthogonalEdgeStyle;html=1;verticalAlign=bottom;endArrow=open;endSize=8;strokeColor=#ff0000;rounded=0;" parent="1" edge="1">
          <mxGeometry relative="1" as="geometry">
            <mxPoint x="429.90999999999997" y="705" as="targetPoint" />
            <mxPoint x="429.40999999999997" y="665" as="sourcePoint" />
          </mxGeometry>
        </mxCell>
        <mxCell id="qonFJEKreM-nKnoJJgmL-57" value="" style="endArrow=none;html=1;rounded=0;" parent="1" edge="1">
          <mxGeometry width="50" height="50" relative="1" as="geometry">
            <mxPoint x="557.5" y="760" as="sourcePoint" />
            <mxPoint x="557.5" y="40" as="targetPoint" />
            <Array as="points" />
          </mxGeometry>
        </mxCell>
      </root>
    </mxGraphModel>
  </diagram>
</mxfile>
